<?xml version="1.0" encoding="iso-8859-1"?>
<!-- Generator: Adobe Illustrator 19.0.0, SVG Export Plug-In . SVG Version: 6.00 Build 0)  -->
<svg version="1.1" id="Layer_1" xmlns="http://www.w3.org/2000/svg" xmlns:xlink="http://www.w3.org/1999/xlink" x="0px" y="0px"
	 viewBox="0 0 512 512" style="enable-background:new 0 0 512 512;" xml:space="preserve">
<g>
	<g>
		<path fill="#FFFFFF" d="M337.471,175.442c-51.05,0-73.868-58.859-74.089-59.443c-1.151-3.075-4.089-5.108-7.372-5.114c-0.004,0-0.007,0-0.012,0
			c-3.278,0-6.217,2.034-7.375,5.102c-0.049,0.131-5.089,13.308-15.656,27.136c-2.643,3.458-1.981,8.405,1.477,11.048
			c3.458,2.642,8.406,1.982,11.048-1.477c4.312-5.642,7.796-11.155,10.506-15.938c3.242,5.723,7.596,12.492,13.146,19.277
			c16.895,20.651,37.657,32.565,60.444,34.79v69.461c-15.71-3.286-46.662-7.175-73.588,4.971
			c-26.928-12.147-57.88-8.257-73.589-4.971v-69.455c13.786-1.328,26.778-6.172,38.719-14.446c3.578-2.479,4.468-7.39,1.989-10.967
			c-2.479-3.578-7.39-4.469-10.968-1.988c-11.505,7.973-24.162,12.016-37.622,12.016c-4.353,0-7.881,3.529-7.881,7.881v87.049
			c0,2.506,1.197,4.862,3.216,6.347c2.02,1.486,4.629,1.92,7.022,1.174c0.432-0.135,43.576-13.283,75.516,3.117
			c1.13,0.58,2.364,0.87,3.6,0.87c1.236,0,2.471-0.29,3.6-0.87c31.942-16.4,75.084-3.251,75.507-3.12
			c2.394,0.753,5.003,0.319,7.027-1.164c2.024-1.484,3.219-3.844,3.219-6.353v-87.049
			C345.352,178.971,341.823,175.442,337.471,175.442z"/>
	</g>
</g>
<g>
	<g>
		<path fill="#FFFFFF" d="M296.05,293.289c-2.463-3.588-7.369-4.501-10.958-2.036c-7.058,4.845-17.661,7.624-29.091,7.624
			s-22.034-2.779-29.092-7.624c-3.59-2.464-8.495-1.552-10.958,2.036c-2.463,3.589-1.552,8.494,2.037,10.958
			c9.62,6.604,23.475,10.392,38.014,10.392c14.538,0,28.393-3.787,38.013-10.392C297.602,301.784,298.513,296.878,296.05,293.289z"
			/>
	</g>
</g>
<g>
	<g>
		<path fill="#FFFFFF" d="M238.486,201.446c-5.742-4.854-13.964-7.638-22.559-7.638c-8.594,0-16.816,2.784-22.558,7.638
			c-3.325,2.81-3.742,7.783-0.932,11.108c2.809,3.324,7.783,3.742,11.107,0.931c2.899-2.451,7.528-3.913,12.383-3.913
			c4.855,0,9.484,1.463,12.382,3.912c1.481,1.25,3.287,1.862,5.085,1.862c2.239,0,4.464-0.95,6.022-2.793
			C242.227,209.229,241.811,204.256,238.486,201.446z"/>
	</g>
</g>
<g>
	<g>
		<circle fill="#FFFFFF" cx="215.931" cy="230.338" r="11.149"/>
	</g>
</g>
<g>
	<g>
		<path fill="#FFFFFF" d="M318.631,201.444c-5.742-4.854-13.964-7.638-22.558-7.638c-8.595,0-16.817,2.784-22.559,7.638
			c-3.325,2.81-3.741,7.783-0.931,11.107c1.558,1.844,3.783,2.793,6.022,2.793c1.797,0,3.604-0.612,5.084-1.863
			c2.898-2.45,7.527-3.912,12.382-3.912c4.855,0,9.484,1.463,12.383,3.913c3.324,2.811,8.298,2.393,11.108-0.93
			C322.373,209.228,321.956,204.254,318.631,201.444z"/>
	</g>
</g>
<g>
	<g>
		<circle fill="#FFFFFF" cx="296.069" cy="230.338" r="11.149"/>
	</g>
</g>
<g>
	<g>
		<path fill="#FFFFFF" d="M307.982,38.894c-0.48-0.179-0.976-0.357-1.491-0.537c-13.209-4.608-31.613-7.25-50.491-7.25
			c-18.878,0-37.281,2.642-50.493,7.25c-0.515,0.18-1.013,0.359-1.488,0.536c-5.302,1.966-8.727,6.895-8.727,12.556
			c0.001,5.66,3.427,10.589,8.722,12.554c0.48,0.179,0.978,0.357,1.493,0.538c13.211,4.607,31.615,7.25,50.493,7.25
			c18.879,0,37.282-2.643,50.492-7.25c0.512-0.179,1.007-0.356,1.484-0.533c0.002-0.001,0.004-0.001,0.005-0.002
			c5.302-1.966,8.726-6.896,8.726-12.557C316.707,45.788,313.281,40.859,307.982,38.894z M256.001,56.028
			c-14.459,0-28.444-1.645-39.43-4.579c10.987-2.934,24.972-4.579,39.43-4.579c14.459,0,28.444,1.645,39.429,4.579
			C284.443,54.383,270.46,56.028,256.001,56.028z"/>
	</g>
</g>
<g>
	<g>
		<path fill="#FFFFFF" d="M407.519,312.035c-12.465-10.956-15.369-25.913-16.022-33.346c1.234-0.965,2.423-1.992,3.566-3.082
			c9.905-9.452,15.139-22.407,15.139-37.461c0-10.504-3.009-19.717-8.699-26.644c-2.837-3.453-6.303-6.053-10.171-7.71v-0.957
			c0-26.1-7.448-51.438-21.539-73.275c-10.623-16.462-24.609-30.329-40.966-40.784c4.416-2.261,8.319-4.76,11.635-7.495
			c12.517-10.323,15.144-21.921,15.144-29.834s-2.627-19.511-15.146-29.835c-6.074-5.008-14.054-9.258-23.72-12.628
			C300.125,3.191,278.555,0,256.001,0c-10.312,0-20.468,0.666-30.183,1.982c-4.313,0.584-7.336,4.553-6.753,8.867
			c0.584,4.313,4.555,7.339,8.867,6.753c9.016-1.221,18.459-1.839,28.067-1.839c20.833,0,40.559,2.879,55.545,8.106
			c7.898,2.754,14.251,6.088,18.882,9.905c12.031,9.92,11.971,25.475,0.002,35.345c-4.632,3.819-10.986,7.152-18.885,9.907
			c-17.777,6.201-36.812,8.106-55.545,8.106c-18.667,0-37.829-1.927-55.545-8.106c-7.9-2.755-14.253-6.089-18.883-9.907
			c-12.03-9.922-11.991-25.457,0-35.345c3.613-2.979,8.357-5.696,14.103-8.076c4.022-1.666,5.931-6.276,4.265-10.297
			c-1.666-4.022-6.276-5.931-10.297-4.265c-7.191,2.978-13.281,6.504-18.1,10.478c-12.518,10.321-15.145,21.921-15.145,29.834
			s2.627,19.511,15.145,29.833c3.315,2.734,7.218,5.232,11.634,7.495c-16.358,10.454-30.344,24.322-40.966,40.784
			c-14.091,21.837-21.539,47.174-21.539,73.275v0.957c-3.868,1.657-7.334,4.257-10.171,7.71c-5.691,6.926-8.699,16.14-8.699,26.643
			c0,15.055,5.233,28.009,15.134,37.462c1.141,1.09,2.332,2.117,3.566,3.082c-0.653,7.433-3.556,22.388-16.022,33.346
			c-1.897,1.668-2.879,4.144-2.644,6.658c0.236,2.515,1.664,4.764,3.839,6.048c1.267,0.748,30.635,17.871,65.548,20.047
			c2.233,2.089,4.533,4.113,6.924,6.039c9.112,7.339,19.207,13.287,29.9,17.766v21.458c-6.294,1.092-12.462,2.693-18.411,4.782
			c-46.306,16.267-77.419,60.185-77.419,109.284c0,4.353,3.529,7.881,7.881,7.881h271.804c4.353,0,7.881-3.529,7.881-7.881
			c0-49.099-31.113-93.017-77.42-109.284c-5.949-2.089-12.116-3.691-18.411-4.782v-21.458c10.694-4.478,20.788-10.427,29.9-17.766
			c2.391-1.925,4.691-3.949,6.924-6.039c34.914-2.176,64.281-19.299,65.548-20.047c2.174-1.284,3.602-3.534,3.839-6.048
			C410.399,316.179,409.417,313.703,407.519,312.035z M382.403,217.551c0.038,0.005,0.076,0.004,0.113,0.009
			c2.101,0.304,4.626,1.298,6.803,3.948c3.347,4.073,5.116,9.827,5.116,16.637c0.002,11.407-4.9,22.904-14.417,29.498
			c-0.27,0.13-0.538,0.268-0.795,0.43c-1.863,1.178-3.896,2.183-6.037,2.987c-0.328,0.123-0.637,0.288-0.946,0.453
			c-1.061,0.353-2.156,0.66-3.292,0.909V229.27c0-0.462,0.024-0.913,0.069-1.351c0.691-6.581,6.392-10.464,11.915-10.464
			C381.427,217.454,381.922,217.487,382.403,217.551z M117.564,238.146c0-6.811,1.77-12.564,5.116-16.637
			c2.177-2.65,4.704-3.645,6.803-3.948c0.038-0.004,0.076-0.004,0.114-0.009c0.481-0.064,0.976-0.097,1.471-0.097
			c5.523,0,11.224,3.885,11.915,10.464c0.046,0.438,0.069,0.889,0.069,1.351v43.151c-1.135-0.249-2.23-0.556-3.29-0.909
			c-0.309-0.165-0.618-0.33-0.947-0.453c-2.144-0.804-4.174-1.807-6.037-2.985c-0.257-0.163-0.525-0.301-0.795-0.431
			C122.465,261.051,117.564,249.552,117.564,238.146z M122.592,315.685c7.592-9.776,11.039-20.467,12.596-28.594l1.194,0.707
			c3.816,13.441,9.951,26.221,18.003,37.638c0.294,0.416,0.57,0.845,0.869,1.258C141.784,323.836,130.11,319.159,122.592,315.685z
			 M311.332,407.869c-1.516,10.543-6.112,20.603-13.097,28.648c-0.517,0.596-1.046,1.184-1.59,1.761
			c-2.99,3.164-2.848,8.153,0.316,11.141c3.164,2.99,8.153,2.847,11.141-0.316c7.025-7.436,12.55-16.557,15.841-26.323
			c0.267-0.791,2.964-9.054,2.437-9.301c32.487,15.205,54.497,46.885,57.331,82.757H128.289
			c2.832-35.865,24.836-67.54,57.312-82.749c2.361,12.421,8.058,24.315,16.488,33.76c8.163,9.145,18.522,16.385,30.181,20.321
			c7.657,2.586,15.64,3.993,23.729,3.993c7.24,0,14.405-1.086,21.295-3.227c4.157-1.292,6.48-5.709,5.187-9.865
			s-5.71-6.48-9.865-5.187c-5.374,1.67-10.965,2.518-16.616,2.518c-10.474,0-20.975-2.974-29.84-8.56
			c-8.466-5.335-15.419-12.961-19.986-21.862c-2.795-5.448-4.662-11.443-5.519-17.504c5.246-1.482,10.656-2.54,16.15-3.154
			c3.989-0.447,7.005-3.819,7.005-7.833v-22.833c0.009,3.432,28.45,4.236,32.191,4.236c10.844,0,21.719-1.422,32.191-4.237v22.834
			c0,4.013,3.016,7.386,7.005,7.833C300.687,405.334,306.091,406.39,311.332,407.869z M337.128,325.978
			c-4.045,4.53-8.429,8.764-13.161,12.575c-17.99,14.488-40.318,22.876-63.327,23.873c-1.543,0.065-3.09,0.101-4.64,0.101
			c-1.551,0-3.097-0.036-4.64-0.101c-23.009-0.997-45.337-9.385-63.327-23.873c-11.919-9.6-21.77-21.805-28.756-35.413
			c-0.522-1.017-6.451-14.351-6.081-14.461c3.274-0.98,5.618-4.135,5.618-7.547v-51.86c0-4.46-1.066-9.016-3.188-12.947
			c-2.836-5.251-7.45-9.449-12.84-11.97c-2.047-0.955-4.183-1.665-6.349-2.11c0.11-22.854,6.681-45.019,19.019-64.137
			c11.585-17.952,27.677-32.435,46.668-42.034c10.621,3.03,22.811,5.107,35.73,6.116c0.08,0.006,0.16,0.013,0.24,0.019
			c5.955,0.458,11.935,0.689,17.908,0.689s11.955-0.215,17.909-0.689c0.078-0.006,0.157-0.013,0.234-0.019
			c12.921-1.009,25.111-3.086,35.734-6.116c18.99,9.6,35.082,24.083,46.668,42.034c12.338,19.119,18.909,41.284,19.019,64.137
			c-2.166,0.446-4.303,1.156-6.373,2.122c-9.113,4.251-15.466,13.343-15.967,23.424c-0.024,0.489-0.039,0.983-0.039,1.483v51.86
			c0,3.016,1.854,5.883,4.585,7.152c0.333,0.153,0.677,0.289,1.049,0.401c-0.707,2.082-1.478,4.145-2.309,6.183
			C351.874,306.233,345.299,316.828,337.128,325.978z M356.737,326.705c0.301-0.415,0.579-0.846,0.874-1.264
			c8.049-11.411,14.193-24.207,18.006-37.643l1.195-0.708c1.556,8.13,5.006,18.826,12.604,28.604
			C381.908,319.174,370.241,323.851,356.737,326.705z"/>
	</g>
</g>
<g>
</g>
<g>
</g>
<g>
</g>
<g>
</g>
<g>
</g>
<g>
</g>
<g>
</g>
<g>
</g>
<g>
</g>
<g>
</g>
<g>
</g>
<g>
</g>
<g>
</g>
<g>
</g>
<g>
</g>
</svg>
